<?xml version="1.0" encoding="UTF-8" standalone="no"?>
<!-- Created with Inkscape (http://www.inkscape.org/) -->

<svg
   xmlns:dc="http://purl.org/dc/elements/1.1/"
   xmlns:cc="http://creativecommons.org/ns#"
   xmlns:rdf="http://www.w3.org/1999/02/22-rdf-syntax-ns#"
   xmlns:svg="http://www.w3.org/2000/svg"
   xmlns="http://www.w3.org/2000/svg"
   xmlns:sodipodi="http://sodipodi.sourceforge.net/DTD/sodipodi-0.dtd"
   xmlns:inkscape="http://www.inkscape.org/namespaces/inkscape"
   width="100%"
   height="100%"
   viewBox="0 0 600 381.50613"
   id="svg4394"
   version="1.1"
   inkscape:version="0.48.5 r10040"
   sodipodi:docname="logo.svg">
  <defs
     id="defs4396" />
  <sodipodi:namedview
     id="base"
     pagecolor="#ffffff"
     bordercolor="#666666"
     borderopacity="1.0"
     inkscape:pageopacity="0.0"
     inkscape:pageshadow="2"
     inkscape:zoom="1.979899"
     inkscape:cx="-761.53007"
     inkscape:cy="174.94808"
     inkscape:document-units="px"
     inkscape:current-layer="layer1"
     showgrid="false"
     fit-margin-top="0"
     fit-margin-left="0"
     fit-margin-right="0"
     fit-margin-bottom="0"
     inkscape:window-width="1364"
     inkscape:window-height="324"
     inkscape:window-x="0"
     inkscape:window-y="442"
     inkscape:window-maximized="0" />
  <metadata
     id="metadata4399">
    <rdf:RDF>
      <cc:Work
         rdf:about="">
        <dc:format>image/svg+xml</dc:format>
        <dc:type
           rdf:resource="http://purl.org/dc/dcmitype/StillImage" />
        <dc:title />
      </cc:Work>
    </rdf:RDF>
  </metadata>
  <g
     inkscape:label="Layer 1"
     inkscape:groupmode="layer"
     id="layer1"
     transform="translate(188.57176,13.403591)">
    <path
       inkscape:export-ydpi="29.469999"
       inkscape:export-xdpi="29.469999"
       sodipodi:nodetypes="czcccccsccccssccccccccsccccscccccsccccccccccc"
       inkscape:connector-curvature="0"
       id="path4324"
       d="m -74.754069,23.902419 c 0,0 -37.038391,-29.6953051 -66.968141,0.2346 -29.92989,29.929755 1.39305,65.340496 1.39305,65.340496 l 138.9128212,135.205265 -0.2896485,0.2898 -0.117,-0.1155 -41.8242847,41.88247 c -12.619627,12.61934 -30.885097,12.61964 -43.504417,0 -12.619785,-12.61992 -12.678135,-30.94269 -0.057,-43.56232 l 42.33292,-42.19328 -65.851991,-65.61198 -41.99812,42.28791 c -47.79458,47.79413 -47.79443,126.80259 0,174.59672 47.79427,47.79457 126.802582,47.79457 174.596704,0 l 41.766531,-41.76653 0.1155,0.117 0.4056,-0.4056 0.1155,0.1155 38.696185,-38.75439 c 20.24622,2.2299 41.30468,-4.40385 56.82816,-19.92747 6.02728,-6.02713 10.72558,-12.89173 14.07657,-20.21697 L 300.56452,336.2544 c 0,0 37.25289,18.21927 60.34609,-5.5296 25.88546,-26.62031 5.17124,-59.98775 5.17124,-59.98775 l -142.15672,-140.30301 0.6951,-0.6372 3.0123,-3.01229 38.87003,-38.870036 c 12.61964,-12.619785 30.88496,-12.561435 43.50444,0.057 12.61947,12.619336 12.61962,30.885106 0,43.504426 l -42.51954,42.80931 65.8646,65.51705 42.23002,-42.75128 c 47.79488,-47.79413 47.79488,-126.802576 0,-174.596701 -23.8969,-23.8973551 -55.64991,-35.84769 -87.35625,-35.85789 -31.70635,-0.018 -63.4013,11.9024849 -87.2985,35.79984 l -38.81199,38.87019 -0.057,-0.057 -3.70739,3.64935 -0.5214,-0.52125 -48.66007,48.659911 c -17.29992,0.35955 -34.472197,7.07145 -47.675175,20.27517 -3.985642,3.98533 -7.376235,8.36652 -10.195328,12.97602 L -74.753619,23.903469 z"
       style="color:#000000;fill:#008080;fill-opacity:1;fill-rule:nonzero;stroke:none;stroke-width:5;marker:none;visibility:visible;display:inline;overflow:visible;enable-background:accumulate" />
    <path
       sodipodi:type="arc"
       style="color:#000000;fill:#008080;fill-opacity:1;fill-rule:nonzero;stroke:none;stroke-width:7.78874683;marker:none;visibility:visible;display:inline;overflow:visible;enable-background:accumulate"
       id="path4132"
       sodipodi:cx="-3341"
       sodipodi:cy="1569.5"
       sodipodi:rx="74"
       sodipodi:ry="74"
       d="M -3267,1569.5 A 74,74 0 1 1 -3415,1569.5 74,74 0 1 1 -3267,1569.5 z"
       transform="matrix(0.37266438,-0.37266438,0.37266438,0.37266438,-34.027374,-2188.3882)" />
    <path
       style="color:#000000;fill:#008080;fill-opacity:1;fill-rule:nonzero;stroke:none;stroke-width:5;marker:none;visibility:visible;display:inline;overflow:visible;enable-background:accumulate"
       d="M -382.12414,-391.05666 C -382.12414,-391.05666 -402.10484,-407.07596 -418.25064,-390.93006 -434.39654,-374.78426 -417.49914,-355.68166 -417.49914,-355.68166 L -342.56164,-282.74416 -342.71784,-282.58786 -342.78084,-282.64986 -365.34324,-260.05606 C -372.15094,-253.24846 -382.00444,-253.24826 -388.81204,-260.05606 -395.61984,-266.86396 -395.65134,-276.74826 -388.84304,-283.55606 L -366.00624,-306.31756 -401.53064,-341.71236 -424.18684,-318.89986 C -449.96994,-293.11696 -449.96984,-250.49526 -424.18684,-224.71235 -398.40384,-198.92925 -355.78224,-198.92925 -329.99934,-224.71235 L -307.46804,-247.24366 -307.40604,-247.18066 -307.18724,-247.39946 -307.12524,-247.33746 -286.25024,-268.24376 C -275.32834,-267.04086 -263.96814,-270.61946 -255.59394,-278.99376 -252.34244,-282.24516 -249.80794,-285.94836 -248.00024,-289.89996 L -179.65654,-222.55615 C -179.65654,-222.55615 -159.56024,-212.72765 -147.10244,-225.53915 -133.13834,-239.89965 -144.31274,-257.89996 -144.31274,-257.89996 L -221.00024,-333.58746 -220.62524,-333.93116 -219.00024,-335.55616 -198.03154,-356.52496 C -191.22374,-363.33276 -181.37044,-363.30126 -174.56274,-356.49396 -167.75504,-349.68636 -167.75494,-339.83276 -174.56274,-333.02516 L -197.50024,-309.93136 -161.96904,-274.58766 -139.18774,-297.65016 C -113.40444,-323.43306 -113.40444,-366.05476 -139.18774,-391.83766 -152.07914,-404.72926 -169.20854,-411.17596 -186.31274,-411.18146 -203.41694,-411.19146 -220.51504,-404.76056 -233.40654,-391.86896 L -254.34394,-370.90016 -254.37494,-370.93116 -256.37494,-368.96246 -256.65624,-369.24366 -282.90624,-342.99376 C -292.23884,-342.79976 -301.50254,-339.17896 -308.62494,-332.05616 -310.77504,-329.90626 -312.60414,-327.54276 -314.12494,-325.05616 L -382.12494,-391.05616 z"
       id="path4195"
       inkscape:connector-curvature="0" />
    <path
       style="color:#000000;fill:#008080;fill-opacity:1;fill-rule:nonzero;stroke:none;stroke-width:5;marker:none;visibility:visible;display:inline;overflow:visible;enable-background:accumulate"
       d="M -1055.8136,92.339028 C -1055.8136,92.339028 -1075.7943,76.319728 -1091.9401,92.465628 -1108.086,108.61143 -1091.1886,127.71403 -1091.1886,127.71403 L -1016.2511,200.65153 -1016.4073,200.80783 -1016.4703,200.74583 -1039.0327,223.33963 C -1045.8404,230.14723 -1055.6939,230.14743 -1062.5015,223.33963 -1069.3093,216.53173 -1069.3408,206.64743 -1062.5325,199.83963 L -1039.6957,177.07813 -1075.2201,141.68333 -1097.8763,164.49583 C -1123.6594,190.27873 -1123.6593,232.90043 -1097.8763,258.68334 -1072.0933,284.46644 -1029.4717,284.46644 -1003.6888,258.68334 L -981.15748,236.15203 -981.09548,236.21503 -980.87668,235.99623 -980.81468,236.05823 -959.93968,215.15193 C -949.01778,216.35483 -937.65758,212.77623 -929.28338,204.40193 -926.03188,201.15053 -923.49738,197.44733 -921.68968,193.49573 L -853.34598,260.83954 C -853.34598,260.83954 -833.24968,270.66804 -820.79188,257.85654 -806.82778,243.49604 -818.00218,225.49573 -818.00218,225.49573 L -894.68968,149.80823 -894.31468,149.46453 -892.68968,147.83953 -871.72098,126.87073 C -864.91318,120.06293 -855.05988,120.09443 -848.25218,126.90173 -841.44448,133.70933 -841.44438,143.56293 -848.25218,150.37053 L -871.18968,173.46433 -835.65848,208.80803 -812.87718,185.74553 C -787.09388,159.96263 -787.09388,117.34093 -812.87718,91.558028 -825.76858,78.666428 -842.89798,72.219728 -860.00218,72.214228 -877.10638,72.204228 -894.20448,78.635128 -907.09598,91.526728 L -928.03338,112.49553 -928.06438,112.46453 -930.06438,114.43323 -930.34568,114.15203 -956.59568,140.40193 C -965.92828,140.59593 -975.19198,144.21673 -982.31438,151.33953 -984.46448,153.48943 -986.29358,155.85293 -987.81441,158.33953 L -1055.8144,92.339528 z"
       id="path4215" />
  </g>
</svg>
